<svg width="495" height="270" viewBox="0 0 495 270" fill="none" xmlns="http://www.w3.org/2000/svg">
<path d="M232.608 205.785C237.942 201.023 243.3 196.182 249.596 192.686C255.583 189.349 268.975 188.079 275.755 188.901C271.226 188.292 260.302 186.207 255.804 186.821C246.344 188.159 243.271 189.412 237.359 191.993C230.441 195.026 223.367 198.008 217.595 203.061C210.998 208.799 206.453 216.419 201.753 223.988C200.791 222.981 199.778 221.871 198.764 220.761C201.016 215.167 203.969 210.062 207.493 205.577C214.283 196.869 222.866 189.784 233.164 184.819C242.74 180.225 253.899 176.84 267.17 177.524C267.093 177.498 269.396 177.815 269.265 177.426C269.109 177.115 267.089 176.717 266.779 176.616C263.024 175.74 259.246 175.202 255.779 175.026C228.977 173.662 203.036 185.751 188.184 208.387C186.806 206.811 185.351 205.211 183.973 203.635C183.531 203.144 183.09 202.654 182.957 202.004C182.824 201.094 183.364 200.23 183.93 199.547C193.831 186.566 209.682 179.596 225.415 175.361C240.477 171.341 256.587 170.436 270.862 163.819C267.015 165.6 260.596 164.462 254.674 164.699C247.589 165.078 242.388 164.683 235.567 166.361C227.713 168.309 219.755 170.311 211.927 172.441C198.339 176.161 184.108 181.058 173.806 191.049C173.934 190.918 165.016 180.039 164.21 179.083C160.881 174.791 157.526 170.578 154.119 166.262C152.532 164.271 150.946 162.281 149.463 160.238C151.868 160.242 153.083 159.944 155.253 159.351C157.94 158.753 158.92 158.119 160.701 157.139C162.688 156.053 164.957 154.625 166.84 153.332C170.502 150.798 174.398 148.601 178.503 146.818C186.686 143.07 195.366 140.698 204.178 138.975C213.068 137.278 222.091 136.23 231.062 135.34C232.303 135.224 233.647 135.055 234.888 134.939C230.183 135.4 224.607 131.937 219.462 132.427C204.441 133.947 189.395 135.546 176.014 139.42C164.337 142.81 154.118 148.061 145.665 155.274C137.342 144.415 128.939 133.271 120.874 122.41L120.977 122.357C132.407 115.767 146.574 114.229 160.154 114.493C173.657 114.731 184.092 117.524 199.177 118.972C189.017 114.015 178.22 111.278 167.093 110.08C155.785 108.909 144.481 108.78 133.368 110.707C127.165 111.806 121.196 113.242 115.722 115.272C112.496 110.927 109.295 106.504 105.966 102.213C122.409 100.55 139.064 100.082 155.244 103.446C162.751 104.938 170.206 106.327 177.861 106.047C175.068 106.178 170.894 103.951 168.123 103.222C164.55 102.318 161.029 101.517 157.482 100.795C150.053 99.3284 142.522 98.4352 135.02 97.9844C127.776 97.5312 120.456 97.5734 113.19 97.9796C110.656 98.1074 105.696 99.6118 103.493 98.4606C100.719 96.9502 97.6901 90.4167 95.7907 87.8046C96.5455 88.9172 121.589 84.3352 124.978 84.4859C144.458 85.3718 149.386 88.7109 162.585 90.4105C164.06 90.6311 165.794 90.8493 167.087 90.8373C167.009 90.8119 168.613 90.9011 167.629 90.4937C159.44 86.8726 151.801 84.9909 144.399 83.7059C134.666 81.9219 125.273 80.9419 116.427 80.9202C107.917 80.9215 99.9285 81.699 92.2782 83.0202C79.3963 64.7831 70.2576 50.8856 68.2715 46.1651C65.7358 39.9656 57.1347 30.75 63.446 24.8325C68.2887 20.2566 80.6602 22.1202 86.4035 22.4312C105.264 23.6354 124.418 26.8418 142.878 31.1223C143.447 31.2211 144.069 31.4236 144.536 31.8359C145.081 32.2735 145.291 32.9485 145.501 33.6236C150.398 47.6127 159.273 60.2107 166.39 73.1896C167.315 65.8642 163.947 58.5267 159.988 52.2102C156.029 45.8937 151.296 39.8448 149.041 32.7834C157.579 33.4849 166.018 35.0206 174.228 37.5219C175.16 37.8256 176.17 38.1547 176.872 38.9033C178.223 40.2968 177.483 42.569 177.801 44.4929C179.128 52.2921 181.768 58.699 183.875 67.2721C185.375 73.2209 187.905 78.1186 188.162 83.6624C189.807 69.378 184.749 60.1033 181.207 42.4822C181.048 41.6505 179.847 39.0057 180.751 38.8671C182.121 38.62 183.469 39.2324 184.687 39.7157C185.153 39.8676 187.734 44.6086 188.187 47.703C189.813 58.8063 194.677 71.0511 195.367 81.0695C195.184 68.7029 191.211 53.1949 188.702 41.1104C192.012 40.9754 196.305 40.9875 198.389 44.353C199.952 46.9423 199.862 50.1198 200.16 53.1636C201.059 63.5967 202.956 77.5617 205.783 85.5031C206.119 73.3921 201.209 56.5388 201.519 44.5061C208.508 45.7429 215.345 47.7101 221.978 50.3042C222.729 50.6357 223.481 50.9672 223.975 51.5615C224.833 52.6211 224.606 54.1074 224.431 55.437C221.864 71.761 222.712 88.4178 227.875 104.227C228.74 106.849 234.472 116.43 233.938 118.596C233.157 105.428 230.213 94.6752 229.18 83.0717C228.122 71.5465 226.951 64.0583 228.093 52.9031C233.583 54.5184 274.251 68.4604 272.933 74.6178C269.08 92.7765 264.429 117.869 266.5 136.051C269.302 126.13 269.307 115.298 270.064 105.058C270.234 102.426 274.567 75.6702 274.567 75.6702C283.359 81.1344 295.759 89.7677 295.759 89.7677C291.131 107.934 281.346 112.113 296.323 160.327C297.762 152.215 296.479 142.437 296.803 133.789C296.92 130.794 298.339 94.2483 301.786 95.8045C303.73 96.6978 304.77 97.99 307.365 100.049C307.365 100.049 304.556 108.407 303.871 111.304C300.288 126.258 302.766 148.992 303.247 164.402C304.787 155.717 305.137 140.924 306.03 132.115C306.897 123.384 307.697 110.904 311.414 103.188C313.283 104.837 313.542 104.834 315.463 106.587C315.463 106.587 311.781 122.375 311.035 129.152C310.064 137.936 310.101 158.402 311.018 167.194C312.537 159.629 313.989 142.508 315.533 134.604C317.203 126.048 317.137 116.753 318.266 108.8C328.809 118.388 331.327 120.422 339.931 130.419C339.857 131.174 340.19 136.483 340.116 137.239C338.947 147.952 342.88 160.414 344.866 170.941C346.667 180.714 352.612 191.751 353.405 201.717C353.489 203.304 353.865 200.567 353.89 200.228C355.35 184.93 356.087 176.07 353.875 160.962C353.289 156.958 349.262 146.892 348.744 140.83C359.391 150.625 365.895 159.418 372.259 171.545C381.074 188.283 367.351 238.848 383.606 253.59C385.887 248.7 381.63 239.079 380.78 234.036C380.035 229.199 380.325 218.547 380.722 208.623C380.956 202.892 381.162 184.845 377.934 179.98C383.35 188.418 388.118 196.472 392.263 203.802C391.597 211.385 391.526 218.989 391.714 226.591C392.041 236.404 392.498 246.347 393.549 256.049C395.685 247.645 396.43 240.347 395.694 231.787C395.287 227.235 394.852 222.5 394.6 217.997C394.461 215.785 393.722 206.444 392.862 204.864C406.288 229.345 412.337 246.396 412.337 246.396C465.921 352.342 414.021 336.734 383.442 335.092C364.841 334.146 342.61 325.084 320.183 312.664C322.418 303.165 327.299 295.569 333.169 289.161C338.626 283.225 345.096 278.139 353.18 275.226C353.773 274.986 352.401 274.712 352.168 274.636C335.203 269.196 317.078 270.485 302.665 280.956C297.611 284.597 293.129 288.857 288.777 293.246C285.742 291.217 282.732 289.11 279.723 287.003C280.796 283.972 282.362 281.276 283.955 278.761C293.127 264.589 309.172 248.582 327.545 250.754C330.21 251.016 332.902 251.459 335.593 251.642C331.166 250.72 326.993 248.754 322.49 248.067C318.012 247.302 313.484 246.953 308.986 247.568C296.32 249.249 286.962 256.34 279.131 263.756C275.138 267.569 271.432 271.822 268.349 276.537C267.989 277.114 267.63 277.69 267.296 278.188C243.658 260.78 223.513 243.73 212.22 234.071C218.852 224.531 224.003 213.469 232.608 205.785Z" fill="#BEDBA0"/>
</svg>
