<svg width="175" height="355" viewBox="0 0 175 355" fill="none" xmlns="http://www.w3.org/2000/svg">
<path d="M43.8096 236.019C50.477 237.951 57.3168 239.833 63.4665 243.224C69.3405 246.432 77.393 256.907 80.1927 262.947C78.3279 258.883 74.348 248.693 71.4881 245.327C65.5026 238.184 62.7504 236.246 57.571 232.726C51.4561 228.539 45.3462 224.239 38.1766 222.115C30.0566 219.667 21.4233 219.873 12.7408 219.907C13.0812 218.611 13.4856 217.148 13.8901 215.684C19.6674 214.617 25.3507 214.401 30.9451 214.921C41.6808 215.942 51.9672 219.45 61.4105 225.37C70.2483 230.867 78.7699 238.401 85.1328 249.887C85.0787 249.827 86.0677 251.862 86.3092 251.531C86.5506 251.199 85.7241 249.342 85.6799 249.056C84.3616 245.47 82.925 241.992 81.2961 239.02C68.4029 215.984 44.9523 200.818 18.6441 200.395C19.1867 198.368 19.7834 196.4 20.326 194.373C20.5233 193.755 20.7206 193.136 21.1935 192.701C21.8439 192.102 22.8632 192.145 23.7103 192.237C39.5381 193.586 53.5304 203.172 65.1976 214.027C76.3184 224.403 85.5666 237.377 98.3627 245.774C94.8867 243.52 92.481 237.554 89.1145 232.8C85.1081 227.108 82.751 222.624 77.7986 217.803C72.0832 212.266 66.3088 206.785 60.416 201.412C50.329 192.047 38.8187 182.793 25.2325 179.488C25.4 179.552 29.7196 166.409 30.055 165.227C31.7513 160.174 33.5609 155.125 35.3113 150.13C36.1495 147.831 36.9927 145.417 37.8309 143.118C39.1056 145.108 39.9769 145.941 41.6113 147.491C43.5706 149.395 44.5159 149.834 46.2885 150.82C48.2284 151.869 50.6165 153.052 52.6205 153.933C56.5744 155.637 60.4542 157.736 64.0926 160.167C71.4286 164.974 77.917 170.999 83.8782 177.4C89.8936 183.86 95.4311 190.869 100.855 197.874C101.663 198.876 102.356 199.873 103.164 200.875C100.319 197.168 100.317 190.733 97.2009 186.729C88.1245 175.016 78.9889 163.356 68.7787 154.214C59.878 146.266 50.2573 140.509 39.8968 137.396C44.4774 124.776 49.2402 111.879 53.9831 99.4369C54.0373 99.4961 54.0373 99.4961 54.0914 99.5553C65.5144 105.616 74.1135 116.57 80.9886 128.02C87.8096 139.412 91.0557 149.514 97.738 162.778C96.4622 151.734 93.1177 141.286 88.2168 131.399C83.3208 121.399 77.4939 111.929 70.0806 103.701C65.9703 99.0869 61.6137 94.9175 57.1138 91.4254C58.9775 86.4356 61.0086 81.5099 62.7049 76.4562C72.6427 89.2313 81.6937 102.823 87.4936 118.101C90.1944 125.105 92.9542 132.054 97.1081 138.265C95.5627 135.979 95.2544 131.354 94.3494 128.696C93.2526 125.233 92.0376 121.879 90.7635 118.58C88.0577 111.69 84.9481 104.953 81.3754 98.4251C77.9602 92.1883 74.1412 86.1054 69.9132 80.2899C68.4711 78.2362 64.6459 74.8864 64.4697 72.4303C64.2641 69.3466 68.044 63.3555 69.1927 60.4427C68.685 61.6741 85.4708 80.0332 87.1588 82.9515C96.6419 99.6367 96.4424 105.494 101.884 117.282C102.45 118.616 103.178 120.127 103.921 121.297C103.867 121.238 104.714 122.64 104.478 121.549C103.211 112.896 100.697 105.502 97.9867 98.7251C94.3511 89.7457 90.2917 81.3748 85.7344 74.0081C81.3346 66.9326 76.442 60.7476 71.4161 55.0125C79.7379 34.6914 86.3484 19.765 89.1376 15.6684C92.8877 10.3594 96.0249 -1.69497 104.16 0.412497C110.443 2.04347 115.398 13.2992 118.075 18.2521C126.893 34.5677 134.293 52.1904 140.446 69.7606C140.648 70.3385 140.849 70.9164 140.765 71.5393C140.681 72.1621 140.258 72.7708 139.839 73.2656C130.886 84.6767 125.162 98.7862 118.252 111.479C124.798 108.395 128.948 101.736 132.132 95.0932C135.257 88.5051 137.723 81.4337 142.34 75.7625C146.271 83.1599 149.331 91.0332 151.583 99.2141C151.824 100.192 152.065 101.171 151.853 102.13C151.429 104.048 149.193 104.58 147.774 105.887C142.044 111.056 138.171 116.588 132.219 122.943C128.115 127.269 125.414 131.939 121.02 135.114C133.6 128.98 138.598 119.795 151.215 107.627C151.866 107.028 153.389 104.643 153.984 105.294C154.959 106.36 155.067 107.789 155.357 108.94C155.45 109.399 152.976 114.079 150.621 116.03C142.305 123.253 134.755 133.699 126.952 139.577C137.001 132.939 147.718 121.431 156.256 113.021C158.126 115.662 160.351 119.286 158.665 122.803C157.413 125.483 154.733 127.079 152.329 128.857C144.171 135.063 133.737 144.02 128.686 150.527C138.77 144.402 150.058 131.495 160.142 125.37C162.754 131.801 164.785 138.549 166.072 145.437C166.21 146.183 166.343 147.043 166.081 147.829C165.628 149.119 164.298 149.69 163.081 150.265C148.387 156.708 135.037 166.169 124.837 178.838C123.157 180.931 118.302 190.749 116.174 191.4C126.662 183.812 133.881 175.744 142.867 168.776C151.793 161.863 157.341 156.971 167.035 151.969C168.554 157.443 178.332 198.513 172.564 200.662C155.606 207.01 132.558 216.348 118.789 227.613C128.334 224.712 137.32 219.053 146.098 214.241C148.364 213.026 172.539 202.54 172.539 202.54C172.604 212.736 172.011 227.574 172.011 227.574C154.683 233.28 146.146 227.397 114.365 265.182C121.818 262.135 129.129 255.837 136.404 251.645C138.907 250.212 169.601 232.085 170.235 235.756C170.539 237.876 169.963 239.389 169.651 242.622C169.651 242.622 161.278 244.662 158.569 245.63C144.398 250.5 127.047 264.519 114.642 273.109C122.558 269.854 134.858 262.342 142.577 258.396C150.178 254.559 160.877 248.631 169.146 247.669C168.81 250.16 168.86 250.333 168.465 252.879C168.465 252.879 153.54 258.117 147.624 261.057C139.91 264.889 123.097 275.685 116.392 281.098C123.431 278.433 138.243 270.571 145.459 267.742C153.311 264.656 160.907 259.623 168.084 256.394C165.724 270.132 165.299 273.36 161.635 285.791C160.94 286.103 156.777 289.174 156.083 289.487C146.743 294.162 138.485 303.951 130.908 311.149C123.862 317.857 117.835 328.537 110.086 334.475C108.854 335.391 111.228 334.295 111.578 334.082C124.873 327.182 132.538 323.176 143.805 313.343C146.756 310.734 153.034 302.114 157.675 298.494C155.192 312.455 151.346 322.544 144.707 334.223C135.491 350.349 86.8814 365.559 83.228 386.817C88.4782 386.127 94.1306 377.538 97.8503 374.221C101.393 371.067 110.309 365.69 118.693 360.804C123.466 358.044 138.402 348.65 140.788 343.397C136.707 352.394 132.606 360.535 128.653 367.886C122.091 371.311 115.791 375.26 109.648 379.5C101.751 384.92 93.8443 390.566 86.3757 396.573C94.3797 393.892 100.759 390.743 107.454 385.558C110.976 382.859 114.622 379.937 118.193 377.411C119.952 376.118 127.228 370.616 128.091 369.058C115.01 393.108 104.13 407.058 104.13 407.058C45.1031 507.361 30.7838 455.964 16.1584 429.723C7.2118 413.744 3.06511 390.506 1.49984 365.328C10.489 362.175 19.2797 362.26 27.5528 363.804C35.2644 365.21 42.8623 367.922 49.4988 373.155C49.9911 373.574 49.5385 372.246 49.4352 372.013C45.015 355.029 34.5263 340.579 18.351 334.204C12.7179 331.974 6.88267 330.476 0.983294 329.146C1.08331 325.562 1.24241 321.925 1.34242 318.341C4.38135 317.615 7.44957 317.516 10.3995 317.526C26.7893 317.703 48.3037 322.651 56.211 339.042C57.3525 341.482 58.4399 343.863 59.6997 346.193C58.1797 342.029 57.5266 337.503 55.8342 333.389C54.1418 329.275 52.0455 325.314 49.1906 321.834C41.2165 312.16 30.4968 308.178 20.2838 305.585C15.0099 304.224 9.65701 303.373 4.15601 303.312C3.53054 303.343 2.85085 303.314 2.22538 303.345C4.16814 274.498 7.67574 248.793 9.72567 234.358C21.3531 234.448 33.0502 232.947 43.8096 236.019Z" fill="url(#paint0_radial)"/>
<defs>
<radialGradient id="paint0_radial" cx="0" cy="0" r="1" gradientUnits="userSpaceOnUse" gradientTransform="translate(75.6107 235.571) rotate(47.563) scale(169.514 169.798)">
<stop offset="0.2803" stop-color="#00513D"/>
<stop offset="1" stop-color="#1C7D4E"/>
</radialGradient>
</defs>
</svg>
