<svg width="343" height="330" viewBox="0 0 343 330" fill="none" xmlns="http://www.w3.org/2000/svg">
<path d="M115.663 120.34C113.552 126.628 111.449 133.099 107.968 138.86C104.694 144.358 94.346 151.68 88.4283 154.114C92.3735 152.491 102.3 149.089 105.62 146.471C112.651 140.964 114.663 138.473 118.257 133.656C122.508 127.972 126.867 122.247 129.178 115.512C131.923 107.812 131.981 99.5295 132.295 91.2729C133.552 91.6586 134.882 92.0777 136.287 92.5301C137.067 98.1516 137.037 103.588 136.271 108.872C134.872 119.143 131.151 128.817 125.059 137.605C119.416 145.79 111.904 153.762 100.719 159.368C100.827 159.327 98.7469 160.179 99.0851 160.42C99.3491 160.628 101.255 159.966 101.47 159.884C104.925 158.756 108.339 157.52 111.233 156.051C133.702 144.615 149.173 122.709 150.648 97.5526C152.532 98.1311 154.383 98.7839 156.267 99.3625C156.821 99.5219 157.449 99.7147 157.835 100.246C158.337 100.918 158.375 101.828 158.264 102.672C156.3 117.781 146.625 130.766 135.8 141.537C125.465 151.814 112.714 160.111 104.201 172.1C106.44 168.906 112.298 166.803 116.952 163.802C122.568 160.25 126.929 158.1 131.739 153.56C137.246 148.262 142.753 142.964 148.145 137.524C157.533 128.162 166.76 117.567 170.42 104.649C170.353 104.797 182.762 109.39 183.803 109.858C188.512 111.705 193.295 113.586 197.971 115.508C200.16 116.402 202.382 117.222 204.538 118.191C202.614 119.292 201.775 120.165 200.23 121.615C198.369 123.37 197.861 124.303 196.836 125.987C195.745 127.82 194.561 130.057 193.618 131.957C191.841 135.714 189.617 139.272 187.204 142.654C182.27 149.461 176.354 155.469 169.944 160.987C163.534 166.505 156.63 171.533 149.759 176.486C148.73 177.186 147.775 177.918 146.747 178.617C150.398 176.059 156.57 176.241 160.503 173.452C172.054 165.24 183.49 156.888 192.621 147.5C200.597 139.291 206.426 130.295 209.849 120.487C221.761 125.392 233.788 130.439 245.485 135.426L245.451 135.5C239.219 146.19 228.381 154.007 217.219 160.16C206.091 166.238 196.316 168.904 183.393 174.801C194.012 174.033 204.143 171.17 213.742 166.906C223.448 162.601 232.753 157.401 240.898 150.607C245.447 146.844 249.551 142.881 253.167 138.609C257.884 140.639 262.492 142.709 267.276 144.59C254.629 153.649 241.324 161.787 226.535 166.668C219.699 168.957 212.979 171.387 206.932 175.103C209.172 173.697 213.616 173.55 216.25 172.857C219.53 171.919 222.844 170.906 226.117 169.785C232.878 167.463 239.368 164.75 245.727 161.532C251.838 158.47 257.751 155.052 263.467 151.277C265.492 149.953 268.774 146.425 271.141 146.327C274.054 146.206 279.649 150.06 282.366 151.37C281.251 150.869 262.993 166.252 260.1 167.721C243.815 176.129 238.289 175.701 226.744 180.52C225.418 181.085 223.943 181.584 222.881 182.358C222.914 182.283 221.595 183.031 222.613 182.952C230.966 182.059 238.065 179.978 244.678 177.588C253.412 174.455 261.543 170.871 268.742 166.78C275.692 162.844 281.783 158.434 287.461 153.748C306.532 162.406 320.463 169.379 324.266 172.249C329.165 176.059 340.578 179.489 338.272 187.208C336.477 193.191 325.529 197.475 320.704 199.863C304.761 207.709 287.665 214.144 270.698 219.297C270.16 219.501 269.58 219.598 268.993 219.513C268.331 219.395 267.804 218.979 267.383 218.522C256.87 209.51 243.672 203.491 231.851 196.394C234.523 202.776 240.72 207.079 246.871 210.289C253.097 213.533 259.698 216.141 264.925 220.812C257.663 224.25 250.04 226.9 242.238 228.756C241.335 228.975 240.358 229.162 239.399 228.91C237.663 228.398 237.135 226.195 235.982 224.783C231.297 219.105 226.1 215.162 220.348 209.272C216.384 205.169 212.002 202.396 209.231 198.024C214.626 210.275 223.12 215.431 234.182 227.995C234.717 228.593 236.862 230.182 236.264 230.717C235.243 231.599 233.861 231.692 232.701 231.886C232.23 231.942 227.929 229.385 226.118 227.052C219.614 218.859 209.923 211.2 204.608 203.541C210.526 213.436 221.107 224.086 228.793 232.632C226.163 234.309 222.597 236.281 219.352 234.555C216.817 233.237 215.43 230.559 213.801 228.219C208.215 220.17 200.09 209.82 194.045 204.781C199.417 214.699 211.336 225.95 216.782 235.901C210.493 238.168 204.032 239.822 197.433 240.788C196.672 240.893 195.91 240.997 195.133 240.737C193.91 240.277 193.419 238.985 192.969 237.8C187.45 223.438 178.922 210.405 167.296 200.089C165.367 198.418 156.186 193.4 155.665 191.379C162.474 201.675 169.925 208.953 176.203 217.849C182.439 226.636 186.901 232.215 191.232 241.665C185.923 242.943 146.341 250.71 144.576 245.093C139.223 228.572 131.22 206.216 121.024 192.522C123.378 201.799 128.447 210.598 132.707 219.213C133.782 221.393 142.822 245.02 142.822 245.02C133.109 244.766 118.907 243.567 118.907 243.567C114.126 226.767 120.107 218.823 85.3752 186.959C88.0104 194.218 93.6738 201.497 97.4681 208.562C98.7738 211.025 114.796 241.184 111.236 241.55C109.241 241.815 107.829 241.18 104.711 240.762C104.711 240.762 103.138 232.73 102.297 230.029C98.1899 216.302 85.5498 199.098 77.8954 186.904C80.6943 194.594 87.323 206.685 90.8092 214.237C94.1802 221.647 99.3922 232.119 100.014 240.081C97.6987 239.667 97.4832 239.749 95.1271 239.226C95.1271 239.226 90.7338 224.745 88.2334 218.976C84.9292 211.416 75.2733 194.928 70.4016 188.272C72.6909 195.108 79.5997 209.558 81.9709 216.609C84.5877 224.306 89.0177 231.746 91.8607 238.741C78.8316 235.925 75.8216 235.466 64.1295 231.464C63.8839 230.818 61.0872 226.702 60.8415 226.056C56.7413 216.888 47.7554 208.652 41.1331 201.12C35.0797 194.112 25.0843 187.924 19.7699 180.266C18.8812 179.062 19.8895 181.391 20.0867 181.748C26.1326 194.738 29.6188 202.29 38.5433 213.447C40.8897 216.377 48.8823 222.648 52.1401 227.328C38.888 224.412 29.455 220.353 18.5601 213.582C3.58005 204.171 -9.02238 157.056 -29.2274 152.713C-28.7265 157.763 -20.8309 163.454 -17.7928 167.231C-14.911 170.759 -10.1719 179.5 -5.81952 187.709C-3.36432 192.385 4.9752 207.032 9.82204 209.566C1.44053 205.354 -6.17933 201.037 -13.0224 196.98C-16.0583 190.613 -19.4917 184.336 -23.3151 178.33C-28.1577 170.615 -33.1898 162.726 -38.6378 155.365C-36.4185 163.151 -33.68 169.385 -28.957 175.974C-26.4803 179.409 -23.9217 183.06 -21.586 186.611C-20.4592 188.279 -15.4906 195.514 -14.0297 196.438C-36.3991 182.994 -49.3625 172.077 -49.3625 172.077C-82.6462 150.512 -97.8008 135.127 -102.248 123.749C-110.249 103.18 -83.9465 95.3421 -67.4054 86.9605C-51.793 79.0552 -29.4559 75.8685 -5.40052 75.4192C-2.70507 84.1347 -3.19417 92.5809 -5.0213 100.426C-6.68897 107.717 -9.56433 114.913 -14.8184 121.039C-15.2008 121.493 -13.9414 121.076 -13.726 120.994C2.61367 117.436 16.8095 107.911 23.6558 92.6724C26.0269 87.3946 27.7291 81.8163 29.2492 76.2455C32.7235 76.4664 36.0901 76.7281 39.5311 77.0233C40.0902 79.9547 40.1031 82.9087 39.9265 85.6881C39.1185 101.406 33.5089 121.846 17.5614 128.708C15.2323 129.716 12.8622 130.617 10.574 131.733C14.5676 130.4 18.9296 130.037 22.9157 128.522C26.9017 127.008 30.765 125.17 34.1596 122.585C43.6712 115.334 47.9568 105.198 50.8752 95.5208C52.3845 90.5705 53.3401 85.4608 53.6676 80.1583C53.6784 79.5378 53.6892 78.9172 53.6999 78.2967C81.1424 81.2453 105.542 85.5965 119.251 88.0927C118.091 98.8281 119.105 110.094 115.663 120.34Z" fill="#BEDBA0"/>
</svg>
