<svg width="40" height="40" viewBox="0 0 40 40" fill="none" xmlns="http://www.w3.org/2000/svg">
<path d="M12.8889 5.14457L27.3819 19.6546L12.8889 34.1636C12.8419 34.2141 12.7853 34.2546 12.7223 34.2828C12.6594 34.3109 12.5914 34.3261 12.5224 34.3273C12.4535 34.3286 12.385 34.316 12.3211 34.2902C12.2571 34.2644 12.199 34.2259 12.1503 34.1772C12.1015 34.1284 12.0631 34.0703 12.0373 34.0064C12.0115 33.9424 11.9988 33.8739 12.0001 33.805C12.0014 33.736 12.0165 33.6681 12.0447 33.6051C12.0728 33.5421 12.1133 33.4855 12.1639 33.4386L25.9319 19.6546L12.1629 5.86958C12.0673 5.77313 12.0137 5.64285 12.0137 5.50707C12.0137 5.3713 12.0673 5.24102 12.1629 5.14457C12.2609 5.05174 12.3908 5 12.5259 5C12.6609 5 12.7908 5.05174 12.8889 5.14457Z" fill="#363636"/>
</svg>
