<svg width="375" height="667" viewBox="0 0 375 667" fill="none" xmlns="http://www.w3.org/2000/svg">
<g clip-path="url(#clip0)">
<path d="M228.431 68.8689C229.892 68.6561 231.406 68.4404 232.867 68.2276C252.595 65.2609 267.872 59.0023 283.633 46.0538C277.793 55.2545 269.08 61.6667 259.765 65.7564C250.347 69.9053 240.225 71.8441 230.137 73.4065C229.421 73.5255 228.626 73.6755 228.204 74.3139C227.855 74.8144 227.838 75.5112 227.818 76.1546C227.545 84.8669 227.486 93.5677 228.02 102.344C228.277 106.799 229.138 111.034 230.471 115.083C233.997 114.438 237.509 113.525 240.925 112.324C258.879 106.081 272.395 93.7088 284.119 77.7403C277.071 87.381 270.909 96.5456 261.712 103.947C257.293 107.505 252.608 110.568 247.657 113.137C243.175 115.467 235.955 116.607 232.548 120.056C235.177 125.882 239.451 132.475 243.578 137.256C246.964 141.168 253.012 149.458 258.295 149.172C260.43 149.057 262.437 148.012 264.305 146.894C274.793 140.653 285.248 128.072 290.394 118.909C288.312 122.634 286.008 126.211 283.618 129.659C279.033 136.222 273.98 142.517 267.973 147.445C265.587 149.421 262.928 151.304 260.079 152.609C264.429 156.013 285.704 174.185 288.483 167.371C290.383 162.719 292.456 154.15 295.767 151.428C295.515 153.289 288.678 171.669 287.241 170.783C303.171 180.279 317.337 187.729 322.268 194.099C324.361 196.796 330.889 193.66 332.188 189.281C335.456 178.48 335.316 180.949 342.661 165.673C339.763 171.717 312.542 149.826 309.09 146.721C310.34 147.081 311.44 148.172 312.661 149.016C315.546 151.001 330.279 159.063 332.137 159.819C336.59 161.585 339.656 162.918 344.327 162.184C346.931 156.637 350.348 149.227 354.874 138.946C353.531 141.963 332.118 129.927 329.704 128.264C322.047 123.005 312.137 114.549 308.411 105.089C309.714 105.447 310.917 106.987 311.843 108.329C315.001 113.002 320.742 118.472 324.944 122.099C335.223 130.99 342.51 133.219 344.307 133.817C348.255 135.129 351.869 135.683 355.946 136.4C358.817 129.821 362.139 122.122 365.984 113.163C367.319 109.986 368.524 106.897 369.599 103.895C367.411 104.522 365.155 104.885 362.83 104.93C354.917 105.09 347.18 101.896 340.145 97.8068C332.616 93.477 324.209 88.2045 317.963 81.7714C324.81 85.8437 330.815 91.7545 337.967 95.5427C348.506 101.155 360.724 103.545 371.052 97.3132C371.182 97.226 371.426 97.293 371.729 97.464C376.184 82.6914 377.336 69.7834 376.052 58.3987C372.747 60.7184 369.145 62.4653 365.346 63.5271C348.518 68.2371 320.206 62.0069 306.018 49.4466C315.044 53.2404 324.152 57.0567 333.55 59.2515C347.989 62.6724 363.106 62.1228 374.691 51.7283C374.741 51.6721 374.876 51.6915 374.986 51.7391C352.831 -10.3817 275.193 -10.0913 275.193 -10.0913C264.224 25.6936 232.694 28.1209 228.431 68.8689ZM304.214 156.431C304.314 156.827 304.336 157.254 304.224 157.662C304.192 158.092 304.026 158.502 303.776 158.837L303.604 159.14C303.281 159.613 302.873 160.009 302.351 160.252C302.114 160.345 301.825 160.441 301.589 160.534C301.033 160.644 300.496 160.62 299.952 160.435C299.705 160.315 299.43 160.169 299.157 160.077C298.798 159.855 298.461 159.552 298.282 159.187C298.024 158.853 297.844 158.488 297.769 158.064C297.668 157.668 297.646 157.241 297.759 156.834C297.79 156.404 297.956 155.993 298.206 155.659L298.378 155.355C298.702 154.883 299.109 154.486 299.632 154.244L300.393 153.962C300.949 153.851 301.486 153.876 302.031 154.06C302.278 154.181 302.553 154.326 302.825 154.419C303.184 154.64 303.521 154.943 303.701 155.308C303.959 155.642 304.138 156.007 304.214 156.431ZM317.157 129.344C318.733 131.373 321.114 132.395 323.267 133.67C326.826 135.753 323.333 141.16 319.773 139.078C317.123 137.508 314.296 136.136 312.347 133.618C309.825 130.383 314.635 126.109 317.157 129.344ZM312.037 117.257C315.599 119.393 312.077 124.775 308.543 122.664C305.006 120.501 308.528 115.118 312.037 117.257ZM295.459 136.137C294.105 138.432 292.999 140.847 291.343 142.97C290.263 144.34 288.448 144.946 286.896 143.906C285.512 143.018 284.891 140.83 285.97 139.46C287.601 137.365 288.733 134.922 290.086 132.628C292.176 129.062 297.549 132.572 295.459 136.137ZM323.817 108.056L323.988 107.753C324.312 107.28 324.719 106.883 325.242 106.641L326.003 106.359C326.56 106.249 327.096 106.273 327.641 106.458C327.888 106.578 328.163 106.724 328.435 106.816C328.795 107.038 329.131 107.341 329.311 107.706C329.569 108.04 329.748 108.405 329.824 108.829C329.924 109.225 329.946 109.652 329.834 110.059C329.802 110.489 329.636 110.9 329.386 111.234L329.214 111.538C328.891 112.01 328.483 112.407 327.961 112.649L327.199 112.931C326.643 113.042 326.107 113.017 325.562 112.833C325.315 112.712 325.04 112.566 324.767 112.474C324.408 112.253 324.071 111.95 323.892 111.585C323.634 111.251 323.454 110.886 323.379 110.462C323.278 110.066 323.256 109.639 323.369 109.231C323.428 108.827 323.594 108.416 323.817 108.056ZM315.217 89.7343C316.878 91.3305 318.707 93.5867 321.136 93.9906C322.864 94.2719 324.289 95.4526 324.2 97.3575C324.148 98.9393 322.554 100.711 320.827 100.43C316.373 99.6808 313.536 97.0777 310.382 94.0368C307.45 91.1445 312.259 86.8701 315.217 89.7343ZM315.51 62.2608C318.96 64.2955 322.503 66.0576 326.333 67.1618C330.326 68.3108 328.343 74.4662 324.375 73.2891C320.028 72.0254 315.882 69.9749 311.988 67.643C308.482 65.5578 311.976 60.1503 315.51 62.2608ZM290.197 104.736C291.448 106.167 291.059 107.954 289.923 109.273C286.819 112.893 283.397 116.076 279.272 118.573C275.717 120.719 272.852 114.987 276.407 112.841C279.987 110.667 282.962 107.642 285.661 104.472C286.797 103.153 289.147 103.588 290.197 104.736ZM281.953 99.5079C278.391 97.3722 281.912 91.99 285.446 94.1004C288.983 96.2642 285.462 101.646 281.953 99.5079ZM287.931 80.5584C288.487 80.448 289.023 80.4725 289.568 80.6572C289.815 80.7776 290.09 80.9233 290.363 81.0156C290.722 81.2371 291.059 81.54 291.238 81.905C291.496 82.2389 291.676 82.6039 291.751 83.028C291.852 83.424 291.874 83.851 291.761 84.2585C291.73 84.6884 291.564 85.0988 291.313 85.4335L291.142 85.7371C290.818 86.2096 290.411 86.6063 289.888 86.8486L289.127 87.1307C288.57 87.241 288.034 87.2165 287.489 87.0318C287.242 86.9114 286.967 86.7657 286.695 86.6734C286.335 86.452 285.999 86.149 285.819 85.784C285.561 85.4501 285.382 85.0851 285.306 84.661C285.206 84.265 285.184 83.838 285.296 83.4305C285.328 83.0006 285.494 82.5902 285.744 82.2555L285.916 81.9519C286.239 81.4794 286.647 81.0827 287.169 80.8404L287.931 80.5584ZM323.188 36.85C324.429 37.559 324.81 38.716 324.623 39.7698C327.7 41.3162 325.729 46.6681 322.011 45.6648C316.339 44.1249 309.318 42.8987 309.103 35.6311C309.013 33.3613 311.421 32.3212 313.288 32.7287C316.829 33.4204 320.097 35.0367 323.188 36.85ZM310.866 22.1014L311.038 21.7977C311.361 21.3253 311.769 20.9286 312.292 20.6862C312.528 20.5932 312.817 20.4972 313.053 20.4042C313.609 20.2938 314.146 20.3183 314.69 20.503C314.937 20.6234 315.212 20.7691 315.485 20.8614C315.844 21.0829 316.181 21.3858 316.36 21.7508C316.618 22.0847 316.798 22.4497 316.873 22.8738C316.974 23.2698 316.996 23.6968 316.883 24.1043C316.852 24.5342 316.686 24.9446 316.436 25.2793L316.264 25.583C315.941 26.0554 315.533 26.4521 315.01 26.6944C314.774 26.7875 314.485 26.8834 314.249 26.9765C313.693 27.0868 313.156 27.0623 312.611 26.8777C312.364 26.7572 312.089 26.6115 311.817 26.5192C311.458 26.2978 311.121 25.9948 310.941 25.6299C310.683 25.2959 310.504 24.9309 310.429 24.5068C310.328 24.1108 310.306 23.6839 310.418 23.2763C310.478 22.8717 310.644 22.4613 310.866 22.1014ZM282.409 62.7658C282.749 62.6136 283.038 62.5177 283.331 62.4752C283.935 62.2552 284.575 62.2205 285.308 62.4218C286.804 62.9029 288.137 64.8647 287.416 66.4559C285.418 70.7655 282.404 74.0597 277.415 74.3561C275.202 74.5026 274.056 71.9954 274.524 70.177C275.446 66.2735 279.012 64.3411 282.409 62.7658ZM278.487 28.8029C280.108 28.5815 281.275 29.4283 281.895 30.5455C282.644 31.5755 282.609 32.969 281.976 34.1808C279.646 38.8028 273.249 43.4305 268.207 40.117C266.849 39.2003 266.202 37.0408 267.282 35.6711C270.117 32.012 273.812 29.4839 278.487 28.8029ZM272.27 15.6778L273.031 15.3958C273.587 15.2855 274.124 15.31 274.668 15.4946C274.915 15.6151 275.191 15.7608 275.463 15.8531C275.519 15.9036 275.6 15.926 275.657 15.9764L275.766 16.024C276.125 16.2455 276.462 16.5484 276.642 16.9134C276.9 17.2473 277.079 17.6123 277.154 18.0364C277.255 18.4324 277.277 18.8594 277.164 19.2669C277.133 19.6968 276.967 20.1072 276.717 20.4419C276.644 20.5796 276.464 20.7232 276.416 20.8328C276.391 20.8609 276.216 21.1112 276.087 21.1985C275.856 21.3983 275.623 21.5447 275.337 21.694C275.337 21.694 275.337 21.694 275.311 21.7222C275.233 21.7532 274.629 21.9732 274.522 21.979C274.522 21.979 274.496 22.0071 274.468 21.9818C274.415 21.9847 273.696 22.0503 273.643 22.0532C273.589 22.0561 272.859 21.9083 272.806 21.9112C272.806 21.9112 272.806 21.9111 272.778 21.8859C272.724 21.8888 272.037 21.5245 271.983 21.5274C271.927 21.4769 271.787 21.3507 271.703 21.275C271.59 21.174 271.366 20.972 271.31 20.9216C271.31 20.9216 271.31 20.9216 271.282 20.8963C271.282 20.8963 270.819 20.2255 270.791 20.2003C270.729 20.0431 270.698 19.9644 270.662 19.7791C270.6 19.6218 270.541 19.518 270.533 19.3578C270.53 19.3045 270.466 18.5853 270.464 18.532C270.464 18.532 270.464 18.532 270.489 18.5038C270.489 18.5038 270.514 18.4757 270.486 18.4505C270.526 18.1807 270.565 17.9109 270.63 17.6131C270.656 17.5849 270.656 17.5849 270.653 17.5316C270.774 17.2842 270.92 17.0086 271.013 16.736L271.038 16.7078C271.339 16.3169 271.75 15.9736 272.27 15.6778Z" fill="url(#paint0_radial)"/>
</g>
<defs>
<radialGradient id="paint0_radial" cx="0" cy="0" r="1" gradientUnits="userSpaceOnUse" gradientTransform="translate(303.378 84.8707) rotate(-104.605) scale(145.928 41.8505)">
<stop offset="0.2803" stop-color="#00513D"/>
<stop offset="1" stop-color="#1C7D4E"/>
</radialGradient>
<clipPath id="clip0">
<rect width="375" height="667" fill="white"/>
</clipPath>
</defs>
</svg>
